<?xml version="1.0" encoding="UTF-8" standalone="no"?>
<svg width="32px" height="35px" viewBox="0 0 32 35" version="1.1" xmlns="http://www.w3.org/2000/svg" xmlns:xlink="http://www.w3.org/1999/xlink" xmlns:sketch="http://www.bohemiancoding.com/sketch/ns">
    <!-- Generator: Sketch 3.3 (11970) - http://www.bohemiancoding.com/sketch -->
    <title>0</title>
    <desc>Created with Sketch.</desc>
    <defs></defs>
    <g id="Home---List-Copy" stroke="none" stroke-width="1" fill="none" fill-rule="evenodd" sketch:type="MSPage">
        <g id="login" sketch:type="MSArtboardGroup" transform="translate(-18.000000, -20.000000)" fill="#2D588E">
            <g id="0" sketch:type="MSLayerGroup" transform="translate(18.000000, 20.000000)">
                <g id="Group" sketch:type="MSShapeGroup">
                    <path d="M15.7594626,17.6013175 C20.7568365,17.6013175 25.7451572,17.6104129 30.7425312,17.5922222 C31.158979,17.5922222 31.2766708,17.7104614 31.2766708,18.1197509 C31.3400433,22.3854567 29.547507,25.7598211 26.3155097,28.4065597 C23.5904924,30.6349135 20.4128144,31.753638 16.9182739,31.9901164 C14.5372787,32.1538322 12.2287092,31.8536866 9.97445902,31.0714889 C9.72096904,30.9805357 9.53990477,31.0714889 9.34073407,31.1806328 C7.16796279,32.3357386 5.00424472,33.4908445 2.83147344,34.636855 C2.62324952,34.7459988 2.41502561,34.9370006 2.17058884,34.7278082 C1.95331171,34.5368064 2.08910992,34.3003281 2.15248241,34.0911357 C2.74999452,32.0264977 3.34750662,29.970955 3.97217836,27.9154123 C4.07176371,27.5879807 4.00839122,27.4060743 3.78206087,27.1695959 C1.37390604,24.6320012 0.0883496967,21.6487357 0.178881833,18.1015602 C0.187935047,17.6740801 0.332786466,17.5922222 0.722074654,17.5922222 C5.74660824,17.6104129 10.7530354,17.6013175 15.7594626,17.6013175 L15.7594626,17.6013175 Z" id="Shape"></path>
                    <path d="M19.8786748,8.41504269 L19.8786748,15.5912515 C19.8786748,16.2824959 19.7428766,16.4189257 19.0729388,16.4280211 L17.3528282,16.4280211 C16.7009968,16.4280211 16.5380389,16.2552099 16.5380389,15.5821561 L16.5380389,12.2168871 L16.5380389,1.26611988 C16.5380389,0.456636257 16.6828904,0.311111111 17.4795732,0.311111111 L19.1544177,0.311111111 C19.7066637,0.311111111 19.887728,0.493017544 19.887728,1.04783216 C19.8786748,3.50356901 19.8786748,5.95930585 19.8786748,8.41504269 L19.8786748,8.41504269 Z" id="Shape"></path>
                    <path d="M24.6678248,9.40643275 L24.6678248,15.5912515 C24.6678248,16.2643053 24.5139202,16.4280211 23.8530356,16.4280211 C23.2374171,16.4280211 22.6127453,16.4371164 21.9971268,16.4280211 C21.5354129,16.4189257 21.327189,16.227924 21.327189,15.7640626 L21.327189,2.98513567 C21.327189,2.53036959 21.5444661,2.33027252 22.00618,2.32117719 C22.6399049,2.31208187 23.2736299,2.31208187 23.9073549,2.32117719 C24.4777073,2.32117719 24.6678248,2.51217895 24.6678248,3.08518421 L24.6678248,9.40643275 L24.6678248,9.40643275 Z" id="Shape"></path>
                    <path d="M7.00500494,9.85210351 L7.00500494,4.17662281 C7.00500494,3.43080643 7.12269672,3.32166257 7.87411345,3.32166257 L9.45842584,3.32166257 C10.1736297,3.32166257 10.3456408,3.48537836 10.3456408,4.19481345 L10.3456408,9.23362164 L10.3456408,15.5002983 C10.3456408,16.2734006 10.1917362,16.4280211 9.42221299,16.4280211 L7.74736846,16.4280211 C7.15890957,16.4280211 7.00500494,16.2734006 7.00500494,15.664014 C7.00500494,13.7267105 7.00500494,11.789407 7.00500494,9.85210351 L7.00500494,9.85210351 Z" id="Shape"></path>
                    <path d="M15.0895247,10.8253029 L15.0895247,15.6367281 C15.0895247,16.2915912 14.9446733,16.4280211 14.2837887,16.4280211 L12.6089442,16.4280211 C11.9027935,16.4280211 11.7488889,16.2643053 11.7398357,15.5366795 L11.7398357,11.8621696 L11.7398357,6.14121228 C11.7398357,5.39539591 11.9027935,5.23168012 12.6361038,5.23168012 L14.3562144,5.23168012 C14.9084605,5.23168012 15.0804715,5.40449123 15.0804715,5.96840117 C15.098578,7.5782731 15.0895247,9.19724035 15.0895247,10.8253029 L15.0895247,10.8253029 Z" id="Shape"></path>
                    <path d="M26.1072858,11.6075006 L26.1072858,7.61465439 C26.1072858,6.95979123 26.2792968,6.79607544 26.9401814,6.79607544 C27.5286403,6.79607544 28.1170992,6.78698012 28.7055581,6.79607544 C29.2396977,6.80517076 29.4479216,7.00526784 29.4479216,7.54189182 C29.4479216,10.2704883 29.4569748,12.9899895 29.4479216,15.718586 C29.4479216,16.2370193 29.2487509,16.4280211 28.7327177,16.4371164 C28.0808864,16.4462117 27.4381082,16.4462117 26.7862768,16.4371164 C26.2883501,16.4280211 26.1072858,16.2461146 26.1072858,15.7458719 L26.1072858,11.6075006 L26.1072858,11.6075006 Z" id="Shape"></path>
                    <path d="M5.55649075,12.4169842 L5.55649075,15.6458234 C5.55649075,16.2461146 5.37542648,16.4280211 4.76886116,16.4280211 L2.91295236,16.4280211 C2.4059724,16.4280211 2.21585491,16.2461146 2.2068017,15.7549673 C2.19774848,13.4993275 2.19774848,11.2436877 2.2068017,8.97895263 C2.2068017,8.50599591 2.4059724,8.31499415 2.86768629,8.31499415 C3.52857089,8.30589883 4.1985087,8.30589883 4.8593933,8.31499415 C5.34826684,8.32408948 5.54743754,8.51509123 5.54743754,9.0062386 C5.56554397,10.1431538 5.55649075,11.280069 5.55649075,12.4169842 L5.55649075,12.4169842 Z" id="Shape"></path>
                </g>
            </g>
        </g>
    </g>
</svg>